HIERARCHY
ROOT hip
{
	OFFSET 0.000000 0.000000 0.000000 
	CHANNELS 6 Xposition Yposition Zposition Xrotation Zrotation Yrotation
	JOINT abdomen
	{
		OFFSET 0.000000 3.402643 0.000000 
		CHANNELS 3 Xrotation Zrotation Yrotation
		JOINT chest
		{
			OFFSET 0.000000 8.438565 -0.680529 
			CHANNELS 3 Xrotation Zrotation Yrotation
			JOINT neck
			{
				OFFSET 0.000000 10.207942 -0.272212 
				CHANNELS 3 Xrotation Zrotation Yrotation
				JOINT head
				{
					OFFSET 0.000000 3.130431 0.000000 
					CHANNELS 3 Xrotation Zrotation Yrotation
					End Site
					{
						OFFSET 0.000000 3.130435 0.000000 
					}
				}
			}
			JOINT lCollar
			{
				OFFSET 3.470700 6.669187 -0.816635 
				CHANNELS 3 Yrotation Zrotation Xrotation
				JOINT lShldr
				{
					OFFSET 3.198488 0.000000 0.000000 
					CHANNELS 3 Zrotation Yrotation Xrotation
					JOINT lForeArm
					{
						OFFSET 10.139888 0.000000 0.000000 
						CHANNELS 3 Yrotation Zrotation Xrotation
						JOINT lHand
						{
							OFFSET 8.370511 0.000000 0.000000 
							CHANNELS 3 Zrotation Yrotation Xrotation
							End Site
							{
								OFFSET 4.083176 0.000000 0.000000 
							}
						}
					}
				}
			}
			JOINT rCollar
			{
				OFFSET -3.470700 6.669187 -0.816635 
				CHANNELS 3 Yrotation Zrotation Xrotation
				JOINT rShldr
				{
					OFFSET -3.198488 0.000000 0.000000 
					CHANNELS 3 Zrotation Yrotation Xrotation
					JOINT rForeArm
					{
						OFFSET -10.139888 0.000000 0.000000 
						CHANNELS 3 Yrotation Zrotation Xrotation
						JOINT rHand
						{
							OFFSET -8.370511 0.000000 0.000000 
							CHANNELS 3 Zrotation Yrotation Xrotation
							End Site
							{
								OFFSET -4.083176 0.000000 0.000000 
							}
						}
					}
				}
			}
		}
	}
	JOINT lThigh
	{
		OFFSET 5.308129 -1.633274 1.361059 
		CHANNELS 3 Xrotation Zrotation Yrotation
		JOINT lShin
		{
			OFFSET -2.041588 -20.007561 0.000000 
			CHANNELS 3 Xrotation Zrotation Yrotation
			JOINT lFoot
			{
				OFFSET 0.000000 -19.190928 -1.224953 
				CHANNELS 3 Xrotation Yrotation Zrotation
				End Site
				{
					OFFSET 0.000000 -2.449906 4.627600 
				}
			}
		}
	}
	JOINT rThigh
	{
		OFFSET -5.308129 -1.633274 1.361059 
		CHANNELS 3 Xrotation Zrotation Yrotation
		JOINT rShin
		{
			OFFSET 2.041588 -20.007561 0.000000 
			CHANNELS 3 Xrotation Zrotation Yrotation
			JOINT rFoot
			{
				OFFSET 0.000000 -19.190928 -1.224953 
				CHANNELS 3 Xrotation Yrotation Zrotation
				End Site
				{
					OFFSET 0.000000 -2.449906 4.627600 
				}
			}
		}
	}
}
MOTION
Frames: 13
Frame Time: 0.033333
0.000000 49.363499 0.000000 -4.257960 -0.477195 0.660527 0.000000 0.000000 0.000000 0.283286 1.386702 0.397715 4.308397 1.122647 -0.513369 5.720760 -2.077448 1.403349 -0.480863 12.320429 -2.214169 1.505991 10.518213 -27.247049 -2.727775 -5.664783 2.738942 4.689945 -0.624426 27.388399 -2.166715 -8.743714 -2.018418 -9.984775 -12.055416 -0.781893 -0.415869 5.630069 2.706374 -7.974123 2.639865 1.853398 3.775219 9.542926 6.509540 12.409046 -2.832344 14.969656 -8.907582 0.091142 -1.076353 6.092852 -5.234108 -3.121146 5.317872 3.247262 -8.369319 -3.787832 -0.122820 3.565987 
0.000000 49.363499 0.000000 -4.345867 -0.496615 0.516254 0.000000 0.000000 0.000000 0.351667 1.396458 0.438493 4.346848 1.116537 -0.282300 5.486834 -1.745463 1.481701 -0.513596 12.358660 -2.078118 1.513317 10.662954 -27.415846 -2.755003 -5.547669 2.730328 4.455402 -0.473111 26.834686 -2.069148 -8.770558 -1.902746 -10.248128 -11.818571 -0.807100 -0.669760 5.693262 2.717020 -8.200018 2.937867 1.949223 3.876020 9.589453 6.554930 12.512594 -2.781449 14.713865 -9.018282 0.068519 -0.839728 6.160374 -5.203593 -3.115918 5.317809 3.255594 -8.173902 -3.660013 -0.112440 3.505483 
0.000000 49.363499 0.000000 -4.414209 -0.467360 0.436467 0.000000 0.000000 0.000000 0.429813 1.386680 0.498916 4.238564 1.132673 -0.374661 5.594501 -1.618860 1.315520 -0.773323 12.150592 -1.926384 1.959970 11.035686 -27.170902 -2.766600 -5.644476 2.736606 4.655795 -0.244976 26.266155 -1.770241 -9.174065 -1.767626 -10.045869 -12.133194 -0.710841 -0.612084 5.614257 2.710315 -9.105302 2.847102 1.277533 4.195735 9.604315 6.690509 12.148490 -2.828917 14.488843 -8.908053 0.098748 -1.062007 6.217656 -5.242382 -3.119250 5.326386 3.275495 -8.123839 -3.770342 -0.126286 3.469157 
0.000000 49.363499 0.000000 -4.404394 -0.379735 0.390576 0.000000 0.000000 0.000000 0.459111 1.347613 0.548134 4.129055 1.146601 -0.483008 5.594145 -1.843159 1.278472 -0.673758 12.029067 -1.891925 2.106378 10.985691 -27.250826 -2.648953 -5.637661 2.735745 4.761860 -0.678519 26.281059 -1.715183 -9.333614 -1.715618 -10.193116 -12.200049 -0.772072 -0.544321 5.554609 2.703642 -9.437733 2.550290 1.309449 3.905395 9.482133 6.633427 12.482291 -2.859084 15.196061 -8.889912 0.081744 -0.951595 6.171250 -5.322371 -3.129718 5.347061 3.217415 -7.919430 -3.795146 -0.129030 3.521174 
0.000000 49.363499 0.000000 -4.414150 -0.360256 0.379371 0.000000 0.000000 0.000000 0.507949 1.328073 0.558871 4.041555 1.139744 -0.551859 5.525914 -1.745527 1.226605 -0.678961 11.998610 -1.816686 2.260472 11.051311 -27.477921 -2.588196 -5.522889 2.723523 4.666370 -0.714012 25.993546 -1.704912 -9.472450 -1.635151 -10.156695 -12.317868 -0.664877 -0.583699 5.545472 2.706154 -9.839920 2.982725 1.611700 3.904944 9.500201 6.694638 12.555226 -2.920343 15.136954 -8.948892 0.077212 -0.921589 6.275505 -5.339299 -3.169054 5.172947 3.248644 -7.949840 -3.792739 -0.100938 3.479976 
0.000000 49.363499 0.000000 -4.336024 -0.360294 0.476537 0.000000 0.000000 0.000000 0.507943 1.298777 0.626966 3.962381 1.157671 -0.710588 5.320741 -1.745180 1.047304 -0.809469 11.934327 -1.799875 2.409586 11.081219 -27.382893 -2.452501 -5.603684 2.731506 5.458614 -0.868344 26.135618 -1.768646 -9.519702 -1.658968 -10.195304 -12.504155 -0.263605 -0.543276 5.622932 2.705624 -9.791814 2.995826 1.213753 3.876255 9.501622 6.654716 12.379628 -2.890967 15.112308 -8.831747 0.059400 -0.886635 6.189697 -5.302290 -3.126976 5.193583 3.239970 -8.036598 -3.720124 -0.124094 3.458990 
0.000000 49.363499 0.000000 -4.150518 -0.448041 0.491496 0.000000 0.000000 0.000000 0.420033 1.318324 0.576292 3.844898 1.192955 -0.795228 5.418238 -1.862355 1.050834 -0.588843 12.055758 -1.908155 2.224016 11.033888 -27.284420 -2.501939 -5.622241 2.727486 6.160757 -1.135658 26.019798 -1.782131 -9.526723 -1.740077 -10.117573 -12.495265 -0.197014 -0.523316 5.661071 2.715065 -9.641446 2.947434 1.396874 3.622580 9.589152 6.580437 12.496815 -2.871337 15.135781 -8.879781 0.065838 -0.948286 6.008493 -5.209517 -3.051740 5.130447 3.216442 -8.158343 -3.668173 -0.128981 3.477543 
0.000000 49.363499 0.000000 -4.052864 -0.457837 0.540251 0.000000 0.000000 0.000000 0.390718 1.249971 0.604438 3.776738 1.120055 -0.708873 5.623616 -1.745685 1.028317 -0.573554 11.938888 -1.973497 2.291315 10.983810 -27.387844 -2.383508 -5.576338 2.727379 6.332640 -1.369033 26.255039 -1.805213 -9.534677 -1.798730 -9.873948 -12.546600 -0.072627 -0.434686 5.698119 2.719402 -9.723900 2.579582 1.021772 3.640236 9.634811 6.585542 12.310377 -2.831844 14.771165 -8.830679 0.079187 -0.984919 5.932551 -5.161777 -3.037974 5.025317 3.275327 -8.437086 -3.601064 -0.113225 3.409411 
0.000000 49.363499 0.000000 -3.994269 -0.457870 0.627673 0.000000 0.000000 0.000000 0.361402 1.162086 0.603229 3.805085 1.179397 -0.804627 5.711532 -1.755575 0.928476 -0.611184 11.637411 -1.975821 2.730361 10.986692 -26.993097 -2.398371 -5.848278 2.740192 6.699641 -1.295894 25.697960 -1.838002 -9.357431 -1.824578 -9.576779 -12.547539 -0.696381 -0.642583 5.527474 2.700006 -9.158326 3.049040 1.968426 3.747248 9.643332 6.548664 12.073570 -2.732947 14.541884 -8.790094 0.084949 -1.078931 5.965257 -5.096327 -2.910689 5.000280 3.191952 -8.421384 -3.635854 -0.115465 3.461676 
0.000000 49.363499 0.000000 -3.955271 -0.565057 0.722661 0.000000 0.000000 0.000000 0.341873 1.210916 0.544539 3.883531 1.205653 -0.783354 5.818885 -1.833771 1.065695 -0.574708 12.086521 -2.024972 2.079006 10.879841 -27.104746 -2.416000 -5.750280 2.740848 6.365953 -1.131958 25.471588 -1.743804 -9.114414 -1.846731 -9.236341 -12.417817 -2.555193 -1.140126 4.971519 2.674561 -8.371735 3.591858 3.932101 3.638984 9.748828 6.577285 12.122220 -2.830524 14.861370 -8.718963 0.112109 -1.259582 5.960050 -4.985081 -2.888346 4.964674 3.206546 -8.765020 -3.655213 -0.116454 3.472046 
0.000000 49.363499 0.000000 -3.906421 -0.535862 0.729949 0.000000 0.000000 0.000000 0.332098 1.152325 0.553749 3.834970 1.042085 -0.769079 6.268540 -1.668536 0.995731 -0.633355 11.825508 -2.061353 2.237365 10.928874 -27.046627 -2.319142 -5.801603 2.737471 6.397743 -1.169013 25.469810 -1.622989 -9.215053 -1.871071 -9.126933 -12.943431 -0.142161 -0.298421 5.627584 2.707558 -8.398293 2.826603 1.431260 3.563299 9.695324 6.471468 12.094378 -2.831292 14.931520 -8.700715 0.100865 -1.178760 6.034543 -5.049121 -2.942747 4.704686 3.238831 -8.655044 -3.502652 -0.114151 3.460816 
0.000000 49.363499 0.000000 -4.023627 -0.555269 0.791009 0.000000 0.000000 0.000000 0.400466 1.113254 0.545078 4.127904 1.006106 -0.755750 5.985307 -1.599891 0.981325 -0.763121 11.769357 -1.928149 2.094895 10.974828 -27.358620 -2.344674 -5.596627 2.729795 6.398914 -1.335311 25.645884 -1.569221 -9.160345 -1.766013 -8.886535 -12.965714 0.177565 -0.413860 5.775892 2.720049 -8.454338 2.930481 1.418497 3.631219 9.743894 6.517055 12.298362 -2.830527 14.967009 -8.837986 0.091571 -1.140515 6.152029 -5.019658 -2.955870 4.847965 3.225895 -8.596721 -3.631927 -0.103664 3.466550 
0.000000 49.363499 0.000000 -3.906434 -0.555347 0.916826 0.000000 0.000000 0.000000 0.341854 1.044903 0.553286 3.942795 0.900413 -0.740998 6.327392 -1.453930 0.907374 -0.724163 11.506163 -2.042845 2.349396 10.778014 -27.441328 -2.158974 -5.620357 2.733203 6.497423 -1.641999 26.197763 -1.585161 -9.128455 -1.867246 -8.287477 -12.816697 -2.330551 -0.982883 5.017266 2.676471 -7.694093 3.285056 3.870286 3.768548 9.794761 6.475034 11.896746 -2.751861 14.278240 -8.767367 0.096758 -1.256202 6.109541 -4.978394 -2.903024 4.702150 3.217266 -8.831259 -3.583472 -0.115468 3.471704 
